<svg 
    width="50" 
    height="50" 
    viewBox="0 0 50 50" 
    fill="none" 
    xmlns="http://www.w3.org/2000/svg">
        <g clip-path="url(#clip0)">
            <path d="M24.5432 0.000155254C10.9609 -0.0862636 0 10.9033 0 24.4999C0 37.7652 10.5576 48.582 23.7222 48.9996V35.7055C13.4095 35.4607 5.73251 31.8599 5.73251 27.1213C5.73251 24.7448 7.69136 22.5267 11.2058 20.9711C11.3642 20.8847 11.4506 20.8847 11.6091 20.8127C12.2572 20.5678 12.9198 20.8127 13.251 21.4752C13.4959 22.1378 13.251 22.7859 12.6029 23.1172L12.2716 23.2756C9.73663 24.4279 8.26749 25.8106 8.26749 27.1213C8.26749 29.9875 15.1379 33.2714 24.9465 33.2714C34.7551 33.2714 41.6255 29.9875 41.6255 27.1213C41.6255 25.8106 40.1564 24.4135 37.6214 23.2756C36.9733 23.0308 36.7284 22.2962 36.9733 21.6337C37.2181 20.9711 37.9527 20.7263 38.6152 20.9711C42.1296 22.5267 44.0885 24.7448 44.0885 27.1213C44.0165 31.7735 36.6708 35.3311 26.5885 35.6911V48.9132C39.1049 47.8474 49 37.3619 49 24.4999C49 10.9753 38.0391 0.000155254 24.5432 0.000155254ZM29.93 22.4547L24.6152 27.611C24.4568 27.8558 24.1255 28.0143 23.7942 28.0143C23.463 28.0143 23.1461 27.9278 22.9012 27.683L20.3663 25.148C19.8765 24.6583 19.8765 23.9238 20.3663 23.4341C20.856 22.9444 21.5905 22.9444 22.0802 23.4341L23.7942 25.148L28.216 20.7263C28.7058 20.2366 29.4403 20.2366 29.93 20.7263C30.4198 21.216 30.4198 21.9505 29.93 22.4547ZM35.1728 27.9423C35.1728 28.6768 34.6831 29.1665 33.9486 29.1665C33.3004 29.1665 32.7243 28.5904 32.7243 27.9423V19.9917C32.7243 15.8148 29.2819 12.3725 25.1193 12.3725C20.9568 12.3725 17.5144 15.8148 17.5144 19.9917V27.9423C17.5144 28.6048 16.9383 29.1665 16.2901 29.1665C15.642 29.1665 15.0658 28.5904 15.0658 27.9423V19.9917C15.0658 14.4177 19.5597 9.90952 25.1193 9.90952C30.679 9.90952 35.1728 14.5041 35.1728 19.9917V27.9423Z" fill="#514e80"></path>
        </g>
    <defs><clipPath id="clip0"><rect width="50" height="50" fill="white"></rect></clipPath></defs></svg>